<svg width="120" height="141" xmlns="http://www.w3.org/2000/svg" xmlns:xlink="http://www.w3.org/1999/xlink">
    <defs>
        <path id="a" d="M0 0h114.894v109.658H0z"/>
        <path id="c" d="M0 0h15.487v29.74H0z"/>
    </defs>
    <g fill="none" fill-rule="evenodd">
        <path d="M5.352 94.074a4.124 4.124 0 1 1 0 8.248 4.124 4.124 0 0 1 0-8.248" fill="#D73661"/>
        <path d="M24.444 46.238a4.124 4.124 0 1 1 0 8.249 4.124 4.124 0 0 1 0-8.249" fill="#FFCA54"/>
        <path d="M80.986 36.304a4.124 4.124 0 1 1 0 8.249 4.124 4.124 0 0 1 0-8.249" fill="#00CDB3"/>
        <path d="M115.876 94.074a4.124 4.124 0 1 1 0 8.248 4.124 4.124 0 0 1 0-8.248M40.78 15.434a4.124 4.124 0 1 1 0 8.248 4.124 4.124 0 0 1 0-8.248" fill="#48BBC9"/>
        <g transform="translate(0 30.784)">
            <mask id="b" fill="#fff">
                <use xlink:href="#a"/>
            </mask>
            <path d="M111.538 38.928 76.59 33.85 60.959 2.18c-1.433-2.905-5.59-2.908-7.025 0l-15.63 31.67-34.95 5.078a3.917 3.917 0 0 0-2.17 6.681L26.472 70.26l-5.97 34.81c-.547 3.191 2.813 5.637 5.683 4.129l31.26-16.435c34.01 17.88 31.717 16.884 33.083 16.884 2.414 0 4.273-2.176 3.861-4.579l-5.97-34.808 25.29-24.652c2.32-2.261 1.038-6.215-2.172-6.681" fill="#FFD93B" mask="url(#b)"/>
        </g>
        <path d="M19.75 38.88c-2.368-.453-6.477-3.416-5.079-11.387.51-2.91-.119-3.149-3.543-3.926-3.345-.76-8.4-1.908-8.765-8.984a2.248 2.248 0 0 1 4.49-.23c.181 3.519 1.839 4.05 5.27 4.83 3.083.7 8.241 1.871 6.976 9.087-.96 5.47 1.47 6.189 1.495 6.193a2.249 2.249 0 0 1-.844 4.416" fill="#695F9A"/>
        <path d="M6.718 41.634a2.919 2.919 0 1 1 0 5.838 2.919 2.919 0 0 1 0-5.838M103.204 101.113a2.919 2.919 0 1 1 0 5.838 2.919 2.919 0 0 1 0-5.838" fill="#48BBC9"/>
        <path d="M9.317 119.252a2.92 2.92 0 1 1 0 5.838 2.92 2.92 0 0 1 0-5.838" fill="#FFCA54"/>
        <path d="M95.116 40.784a2.248 2.248 0 0 1-.045-3.179l3.123-3.212a2.248 2.248 0 0 1 3.224 3.134l-3.123 3.212c-.867.891-2.29.91-3.179.045M34.345 39.549l-4.153-1.68a2.248 2.248 0 1 1 1.685-4.168l4.154 1.68a2.248 2.248 0 1 1-1.686 4.168" fill="#D73661"/>
        <path d="m13.827 113.361-4.154-1.68a2.248 2.248 0 1 1 1.686-4.167l4.154 1.68a2.248 2.248 0 0 1-1.686 4.167" fill="#00CDB3"/>
        <path d="m108.627 121.04-4.154-1.68a2.248 2.248 0 0 1 1.686-4.168l4.154 1.68a2.248 2.248 0 0 1-1.686 4.167" fill="#48BBC9"/>
        <g transform="translate(66.647)">
            <mask id="d" fill="#fff">
                <use xlink:href="#c"/>
            </mask>
            <path d="M15.285 1.857a2.248 2.248 0 0 0-4.428.782c.613 3.47-.883 4.36-4.052 5.889C3.957 9.9-.807 12.2 2.045 18.948c2.169 5.133-.069 6.371-.069 6.371-.629.418-2.618 1.157-1.768 3.18 1.467 3.497 10.57-.435 5.978-11.3-1.15-2.722-.59-3.096 2.572-4.621 3.09-1.492 7.76-3.744 6.527-10.721" fill="#D73661" mask="url(#d)"/>
        </g>
        <path d="M116.179 34.612a2.248 2.248 0 0 0-3.13.558c-1.644 2.358-1.964 5.165-2.245 7.64-.486 4.267-.667 5.865-5.128 5.58-4.911-.315-8.58.738-10.91 3.125-2.867 2.941-2.765 6.999-.062 7.044 2.248.037 2.4-2.358 2.4-2.358s.465-3.821 8.286-3.325c12.314.784 8.38-10.877 11.346-15.134a2.247 2.247 0 0 0-.557-3.13" fill="#695F9A"/>
        <path d="m48.233 60.113 13.063-26.468-.336-.682c-1.433-2.904-5.59-2.907-7.026 0l-15.63 31.67 5.291-.94c.372-.07 3.212-.691 4.638-3.58M28.94 134.354l5.317-30.997c.625-3.652-1.597-6.005-1.604-6.012L9.62 74.894c-1.859-1.812-1.474-4.917.802-6.21l-7.068 1.027a3.917 3.917 0 0 0-2.17 6.682l25.289 24.65-5.97 34.81c-.547 3.192 2.814 5.638 5.683 4.13l3.966-2.085a3.916 3.916 0 0 1-1.212-3.544" fill="#F4C534"/>
    </g>
</svg>
