<svg width="120" height="120" xmlns="http://www.w3.org/2000/svg">
    <g fill="none" fill-rule="evenodd">
        <path fill="#3E4347" d="M33.333 23.327 23.327 33.333 12.222 22.23l10.006-10.007z"/>
        <path d="M6.362 6.29a21.31 21.31 0 0 0 0 30.377L37.087 6.29c-8.486-8.387-22.242-8.387-30.725 0" fill="#48BBC9"/>
        <path fill="#3E4347" d="m97.75 12.055 10.063 9.949-11.168 11.043-10.063-9.95z"/>
        <path d="M113.638 6.29a21.31 21.31 0 0 1 0 30.377L82.913 6.29c8.486-8.387 22.242-8.387 30.725 0" fill="#48BBC9"/>
        <g>
            <path d="M22.585 100.437h18.1l-16.286 17.939A5.013 5.013 0 0 1 20.734 120c-3.704 0-6.084-3.89-4.42-7.176l6.271-12.387zM98.155 120a5.012 5.012 0 0 1-3.666-1.624l-16.284-17.94h18.099l6.271 12.388c1.663 3.286-.717 7.176-4.42 7.176" fill="#3E4347"/>
            <path d="M112.222 66.087c0 29.134-23.629 52.754-52.778 52.754-29.148 0-52.777-23.62-52.777-52.754 0-29.134 23.629-52.754 52.777-52.754 29.15 0 52.778 23.62 52.778 52.754" fill="#48BBC9"/>
            <path d="M101.73 66.087c0 23.343-18.933 42.266-42.286 42.266S17.159 89.43 17.159 66.087c0-23.342 18.932-42.265 42.285-42.265 23.353 0 42.285 18.923 42.285 42.265" fill="#FFF"/>
            <path d="M63.51 31.58a4.065 4.065 0 0 1-8.131 0 4.064 4.064 0 0 1 4.065-4.064 4.065 4.065 0 0 1 4.066 4.063M63.51 100.595a4.064 4.064 0 0 1-4.066 4.063 4.064 4.064 0 1 1 0-8.127 4.065 4.065 0 0 1 4.066 4.064M98.045 66.087a4.065 4.065 0 0 1-8.131 0 4.065 4.065 0 0 1 4.066-4.063 4.064 4.064 0 0 1 4.065 4.063M28.986 66.087a4.065 4.065 0 1 1-8.13-.001 4.065 4.065 0 0 1 8.13.001" fill="#BBC7D1"/>
            <path fill="#D73661" d="m53.032 76.801-3.616-3.614L82.81 42.37l1.054 1.053z"/>
            <path fill="#3E4347" d="m66.74 76.801 3.616-3.614-24.748-22.176-1.054 1.053z"/>
            <path d="M66.207 66.065c0 3.753-3.029 6.783-6.74 6.783a6.774 6.774 0 0 1-6.786-6.783c0-3.709 3.03-6.738 6.786-6.738 3.711 0 6.74 3.029 6.74 6.738" fill="#DEE4E9"/>
            <path d="M63.162 66.08a3.717 3.717 0 1 1-7.435-.002 3.717 3.717 0 0 1 7.435.002" fill="#3E4347"/>
        </g>
    </g>
</svg>
