<svg width="212" height="72" xmlns="http://www.w3.org/2000/svg" xmlns:xlink="http://www.w3.org/1999/xlink">
    <defs>
        <path id="a" d="M0 0h7.266v28.62H0z"/>
        <path id="c" d="M0 0h7.266v28.62H0z"/>
        <path id="e" d="M0 0h27.51v70.4H0z"/>
    </defs>
    <g fill="none" fill-rule="evenodd">
        <path d="M104 20.892 93.136 5H87v34h5.277V12.915l12.184 16.119.03-.037 3.682-5.319-3.007-4.495-1.167 1.71zM121 39V5h-6.137l-6.69 9.814 3.007 4.56 4.542-6.46V39H121zM136.912 34.225c-4.371 0-7.042-3.317-7.042-7.42 0-3.98 2.67-7.48 7.042-7.48 4.188 0 7.041 3.5 7.041 7.48 0 4.103-2.61 7.42-7.041 7.42m0-19.303c-7.163 0-11.837 5.187-11.837 11.883 0 6.756 4.613 11.883 11.837 11.883 7.224 0 11.897-5.127 11.897-11.883 0-6.696-4.856-11.883-11.897-11.883M153.908 15.284V40.92c0 2.655-.363 4.223-2.671 4.223-.91.06-1.942-.181-2.913-.664l-1.76 3.741a8.742 8.742 0 0 0 4.856 1.447c5.16 0 7.284-3.016 7.284-8.747V15.284h-4.796zm-.546-6.696c0 3.921 5.948 3.921 5.948 0 0-3.86-5.948-3.86-5.948 0zM176.064 34.406c-4.127 0-7.466-2.895-7.466-7.601 0-4.705 3.339-7.54 7.466-7.54 9.895 0 9.895 15.141 0 15.141zm7.589-19.001-.122 3.62c-1.457-2.595-4.553-4.163-7.83-4.163-6.617 0-11.898 4.282-11.898 11.943 0 7.782 5.1 12.065 11.776 12.004 2.853 0 6.374-1.386 7.952-4.283l.242 3.68h4.553V15.405h-4.673zM200.345 33.561l11.533-15.924v-2.232H193.79v4.343h11.047L193 36.276v1.93h19V33.56zM165.476 66.234v-7.595h-1.333v9.009c0 .705-.089 1.235-.178 1.5-.177.53-.444.884-.978 1.149-.266.176-.71.264-1.244.264v1.414h.09c2.399 0 3.643-1.325 3.643-3.886v-.53h.178v-1.325h-.178z" fill="#1A1919"/>
        <path d="M183.606 59.61c-.622-.618-1.51-.97-2.578-.97h-3.288v1.412h3.377c.889 0 1.512.265 1.778.972.178.176.267.617.267 1.236v3.973h-17.686v1.326h18.663c.178 0 .445-.177.445-.442v-5.033c0-1.06-.356-1.855-.978-2.474M192.049 66.234h-1.51c-1.245 0-1.778-.707-1.778-1.942v-2.208c0-.619.088-1.06.266-1.325.444-.442.978-.707 1.778-.707h1.244v6.182zm1.421 0V59.08c0-.264-.266-.44-.443-.44h-2.222c-1.067 0-1.867.353-2.577.97-.622.619-.89 1.502-.89 2.474v2.03c0 1.06.268 1.855.89 2.562.71.617 1.51.883 2.577.883h1.244v.794c0 .619 0 1.06-.09 1.325-.089.265-.177.441-.443.619a2.315 2.315 0 0 1-1.244.353h-2.934v1.325h3.11c.979 0 1.778-.266 2.311-.971.445-.531.711-1.326.711-2.473v-.972h.09v-1.325h-.09z" fill="#1A1919"/>
        <path d="M210.534 61.465v4.857c0 .795-.356 1.413-.977 1.766a4.137 4.137 0 0 1-1.244.178h-1.245V62.26c0-.618.088-.972.267-1.237.09-.176.266-.44.533-.617.266-.266.711-.354 1.244-.354h.8v-1.413h-.71c-1.068 0-1.867.353-2.49.972-.71.618-.977 1.5-.977 2.473v4.15h-12.264v1.325h12.264v1.677c0 .266.177.442.445.442h2.22c2.312 0 3.467-1.147 3.467-3.444v-4.769h-1.333zM181.047 71.323a.68.68 0 0 0-.682-.677.68.68 0 0 0-.681.677c0 .374.304.677.68.677a.68.68 0 0 0 .683-.677M165.51 54.332a.68.68 0 0 0-.682-.676.678.678 0 0 0-.68.676.68.68 0 0 0 .68.678.68.68 0 0 0 .682-.678" fill="#1A1919"/>
        <path d="M38.402 16.57v38.874c0 1.996-1.625 3.61-3.633 3.61s-3.633-1.614-3.633-3.61V16.57c0-1.996 1.625-3.61 3.633-3.61s3.633 1.614 3.633 3.61" fill="#D73661"/>
        <g transform="translate(0 20.118)">
            <mask id="b" fill="#fff">
                <use xlink:href="#a"/>
            </mask>
            <path d="M7.266 3.61v21.4c0 1.996-1.625 3.61-3.632 3.61C1.624 28.62 0 27.007 0 25.01V3.61C0 1.615 1.625 0 3.634 0 5.64 0 7.266 1.615 7.266 3.61" fill="#695F9A" mask="url(#b)"/>
        </g>
        <path d="M27.503 3.61c0 1.997-1.625 3.61-3.633 3.61-2.966 0-5.883.798-8.437 2.313-2.2 1.298-4.1 3.11-5.492 5.24a3.645 3.645 0 0 1-5.024 1.057 3.598 3.598 0 0 1-1.064-4.992 24.029 24.029 0 0 1 7.862-7.51A23.84 23.84 0 0 1 23.87 0c2.008 0 3.633 1.615 3.633 3.61" fill="#695F9A"/>
        <g transform="translate(0 20.118)">
            <mask id="d" fill="#fff">
                <use xlink:href="#c"/>
            </mask>
            <path d="M7.266 3.61v21.4c0 1.996-1.625 3.61-3.632 3.61C1.624 28.62 0 27.007 0 25.01V3.61C0 1.615 1.625 0 3.634 0 5.64 0 7.266 1.615 7.266 3.61" fill="#48BBC9" mask="url(#d)"/>
        </g>
        <g transform="translate(41.453)">
            <mask id="f" fill="#fff">
                <use xlink:href="#e"/>
            </mask>
            <path d="M27.51 23.728V66.79c0 1.995-1.625 3.61-3.632 3.61-2.01 0-3.634-1.615-3.634-3.61V23.728c0-9.103-7.45-16.507-16.611-16.507C1.625 7.22 0 5.606 0 3.61 0 1.615 1.625 0 3.633 0 16.796 0 27.51 10.648 27.51 23.728" fill="#F7C136" mask="url(#f)"/>
        </g>
    </g>
</svg>
