<svg width="120" height="120" xmlns="http://www.w3.org/2000/svg">
    <g fill="none" fill-rule="evenodd">
        <path d="M60 0c33.137 0 60 26.863 60 60s-26.863 60-60 60S0 93.137 0 60 26.863 0 60 0" fill="#FFD93B"/>
        <path d="M120 60c0 33.15-26.869 60-60 60-18.862 0-35.7-8.7-46.706-22.331 10.293 8.325 23.4 13.294 37.668 13.294 33.132 0 60-26.85 60-60 0-14.27-4.968-27.376-13.293-37.67C111.28 24.3 120 41.139 120 60" fill="#F4C534"/>
        <path d="M77.914 90.187a3.107 3.107 0 0 1-3.124 3.124H45.214a3.11 3.11 0 0 1-3.124-3.124 3.124 3.124 0 0 1 3.124-3.123H74.79a3.126 3.126 0 0 1 3.124 3.123M26.205 61.331c1.466-.862 5.805 3.788 12.619 4.043 7.054.262 11.152-4.905 12.619-4.043 1.826.626-.664 12.552-12.62 12.596-11.95-.044-14.444-11.97-12.618-12.596" fill="#3E4347"/>
        <path d="M23.393 56.089a2.497 2.497 0 0 1-2.07-2.865 2.486 2.486 0 0 1 2.865-2.07c14.055 2.257 18.326-7.782 18.367-7.883a2.5 2.5 0 1 1 4.631 1.886c-2.82 6.908-11.677 12.878-23.793 10.932" fill="#E9B02C"/>
        <path d="M93.795 61.331c-1.466-.862-5.805 3.788-12.619 4.043-7.054.262-11.152-4.905-12.619-4.043-1.826.626.664 12.552 12.62 12.596 11.95-.044 14.444-11.97 12.618-12.596" fill="#3E4347"/>
        <path d="M72.814 45.154a2.5 2.5 0 0 1 4.627-1.898c.188.45 4.481 10.13 18.371 7.898a2.489 2.489 0 0 1 2.866 2.07 2.5 2.5 0 0 1-2.07 2.865c-12.03 1.935-20.952-3.964-23.794-10.935" fill="#E9B02C"/>
    </g>
</svg>
